<svg width="172" height="49" viewBox="0 0 172 49" fill="none" xmlns="http://www.w3.org/2000/svg">
<path d="M0.0454545 48V1.45454H9.88636V20.6591H29.8636V1.45454H39.6818V48H29.8636V28.7727H9.88636V48H0.0454545ZM73.0455 14.8409C72.8636 13.0076 72.0833 11.5833 70.7045 10.5682C69.3258 9.55303 67.4545 9.04545 65.0909 9.04545C63.4848 9.04545 62.1288 9.27273 61.0227 9.72727C59.9167 10.1667 59.0682 10.7803 58.4773 11.5682C57.9015 12.3561 57.6136 13.25 57.6136 14.25C57.5833 15.0833 57.7576 15.8106 58.1364 16.4318C58.5303 17.053 59.0682 17.5909 59.75 18.0455C60.4318 18.4848 61.2197 18.8712 62.1136 19.2045C63.0076 19.5227 63.9621 19.7955 64.9773 20.0227L69.1591 21.0227C71.1894 21.4773 73.053 22.0833 74.75 22.8409C76.447 23.5985 77.9167 24.5303 79.1591 25.6364C80.4015 26.7424 81.3636 28.0455 82.0455 29.5455C82.7424 31.0455 83.0985 32.7652 83.1136 34.7045C83.0985 37.553 82.3712 40.0227 80.9318 42.1136C79.5076 44.1894 77.447 45.803 74.75 46.9545C72.0682 48.0909 68.8333 48.6591 65.0455 48.6591C61.2879 48.6591 58.0152 48.0833 55.2273 46.9318C52.4545 45.7803 50.2879 44.0758 48.7273 41.8182C47.1818 39.5455 46.3712 36.7348 46.2955 33.3864H55.8182C55.9242 34.947 56.3712 36.25 57.1591 37.2955C57.9621 38.3258 59.0303 39.1061 60.3636 39.6364C61.7121 40.1515 63.2348 40.4091 64.9318 40.4091C66.5985 40.4091 68.0455 40.1667 69.2727 39.6818C70.5152 39.197 71.4773 38.5227 72.1591 37.6591C72.8409 36.7955 73.1818 35.803 73.1818 34.6818C73.1818 33.6364 72.8712 32.7576 72.25 32.0455C71.6439 31.3333 70.75 30.7273 69.5682 30.2273C68.4015 29.7273 66.9697 29.2727 65.2727 28.8636L60.2045 27.5909C56.2803 26.6364 53.1818 25.1439 50.9091 23.1136C48.6364 21.0833 47.5076 18.3485 47.5227 14.9091C47.5076 12.0909 48.2576 9.62879 49.7727 7.52273C51.303 5.41667 53.4015 3.77273 56.0682 2.59091C58.7348 1.40909 61.7652 0.81818 65.1591 0.81818C68.6136 0.81818 71.6288 1.40909 74.2045 2.59091C76.7955 3.77273 78.8106 5.41667 80.25 7.52273C81.6894 9.62879 82.4318 12.0682 82.4773 14.8409H73.0455ZM96.6932 48H86.1477L102.216 1.45454H114.898L130.943 48H120.398L108.739 12.0909H108.375L96.6932 48ZM96.0341 29.7045H120.943V37.3864H96.0341V29.7045ZM136.545 48V1.45454H154.909C158.439 1.45454 161.447 2.12879 163.932 3.47727C166.417 4.81061 168.311 6.66667 169.614 9.04545C170.932 11.4091 171.591 14.1364 171.591 17.2273C171.591 20.3182 170.924 23.0455 169.591 25.4091C168.258 27.7727 166.326 29.6136 163.795 30.9318C161.28 32.25 158.235 32.9091 154.659 32.9091H142.955V25.0227H153.068C154.962 25.0227 156.523 24.697 157.75 24.0455C158.992 23.3788 159.917 22.4621 160.523 21.2955C161.144 20.1136 161.455 18.7576 161.455 17.2273C161.455 15.6818 161.144 14.3333 160.523 13.1818C159.917 12.0151 158.992 11.1136 157.75 10.4773C156.508 9.82576 154.932 9.5 153.023 9.5H146.386V48H136.545Z" fill="#3C415C"/>
</svg>
